<svg xmlns="http://www.w3.org/2000/svg" viewBox="0 0 48.82 56.68"><defs><style>.cls-1{fill:#ea417f;}</style></defs><g id="Layer_2" data-name="Layer 2"><g id="Layer_1-2" data-name="Layer 1"><path d="M44.72,48.31V41.38A20.06,20.06,0,0,1,28.62,49a20,20,0,0,1-14.73-6A20.19,20.19,0,0,1,7.84,28.21a20,20,0,0,1,6-14.73A20.13,20.13,0,0,1,28.62,7.42,20.23,20.23,0,0,1,44.72,15V8h4v40.3Zm-4.19-32a16.28,16.28,0,0,0-11.91-5,16.2,16.2,0,0,0-11.9,4.88,16.32,16.32,0,0,0-5,12,16.23,16.23,0,0,0,5,11.9,16.25,16.25,0,0,0,11.9,5,16.21,16.21,0,0,0,11.91-4.88,16.35,16.35,0,0,0,5-12A16.24,16.24,0,0,0,40.53,16.3Z"/><path class="cls-1" d="M48.72,49c-5.3,5.61-11.63,7.69-20.38,7.69Q15.83,56.68,8,48.8T0,28.34Q0,16,8,8T28.34,0C38.22,0,44.6,3,48.82,8.14l-.09,4.39C43.78,5.74,37.24,3.09,28.34,3.09A24.55,24.55,0,0,0,3.09,28.34q0,11,7.1,18.07a24.89,24.89,0,0,0,18.15,7.1,28.66,28.66,0,0,0,20.38-8.87Z"/></g></g></svg>