<svg xmlns="http://www.w3.org/2000/svg" viewBox="0 0 340 56.68"><defs><style>.cls-1{fill:#ea417f;}.cls-2{fill:#231f20;}</style></defs><g id="Layer_2" data-name="Layer 2"><g id="Layer_1-2" data-name="Layer 1"><path d="M44.72,48.31V41.38A20.06,20.06,0,0,1,28.62,49a20,20,0,0,1-14.73-6A20.19,20.19,0,0,1,7.84,28.21a20,20,0,0,1,6-14.73A20.13,20.13,0,0,1,28.62,7.42,20.23,20.23,0,0,1,44.72,15V8h4v40.3Zm-4.19-32a16.28,16.28,0,0,0-11.91-5,16.2,16.2,0,0,0-11.9,4.88,16.32,16.32,0,0,0-5,12,16.23,16.23,0,0,0,5,11.9,16.25,16.25,0,0,0,11.9,5,16.21,16.21,0,0,0,11.91-4.88,16.35,16.35,0,0,0,5-12A16.24,16.24,0,0,0,40.53,16.3Z"/><path class="cls-1" d="M48.72,49c-5.3,5.61-11.63,7.69-20.38,7.69Q15.83,56.68,8,48.8T0,28.34Q0,16,8,8T28.34,0C38.22,0,44.6,3,48.82,8.14l-.09,4.39C43.78,5.74,37.24,3.09,28.34,3.09A24.55,24.55,0,0,0,3.09,28.34q0,11,7.1,18.07a24.89,24.89,0,0,0,18.15,7.1,28.66,28.66,0,0,0,20.38-8.87Z"/><path class="cls-2" d="M80.71,20.63h2.45V40H80.71V36.71a9.83,9.83,0,0,1-7.82,3.8A10.2,10.2,0,0,1,73,20.12a9.19,9.19,0,0,1,7.75,4.05Zm-15.2,9.72a7.78,7.78,0,0,0,7.63,7.89,7.64,7.64,0,0,0,7.75-7.82,7.69,7.69,0,1,0-15.38-.07Z"/><path class="cls-2" d="M98.57,24.1c2-2.63,4.42-4,7.27-4,4.24,0,7.2,2.92,7.2,9V40h-2.48V29.47c0-4.56-1.43-7.09-5.19-7.09A6.24,6.24,0,0,0,100.25,25c-1.46,1.89-1.68,3.79-1.68,6.86V40H96.09V20.63h2.48Z"/><path class="cls-2" d="M142.6,36.71a9.83,9.83,0,0,1-7.82,3.8,10.2,10.2,0,0,1,.07-20.39,9.19,9.19,0,0,1,7.75,4.05v-11h2.48V40H142.6Zm-15.2-6.36A7.78,7.78,0,0,0,135,38.24a7.61,7.61,0,0,0,7.71-7.82,7.67,7.67,0,1,0-15.34-.07Z"/><path class="cls-2" d="M161,14.67a2.11,2.11,0,0,1-2.09,2.09,2.07,2.07,0,0,1-2-2.09,2,2,0,0,1,2-2A2.07,2.07,0,0,1,161,14.67Zm-3.29,6h2.48V40h-2.48Z"/><path class="cls-2" d="M195.39,20.23A11.33,11.33,0,0,0,186,15.7,11.15,11.15,0,0,0,174.6,27c0,6.5,5,11.25,11.58,11.25a11.76,11.76,0,0,0,9.21-4.35l2.09,1.57A14.11,14.11,0,0,1,186,40.65c-8.77,0-14.14-6.17-14.14-13.88s6-13.63,14.14-13.63a13.58,13.58,0,0,1,11.48,5.52Z"/><path class="cls-2" d="M229,30.39a10.12,10.12,0,1,1-10.12-10.27A10,10,0,0,1,229,30.39Zm-17.69,0a7.57,7.57,0,1,0,15.13,0,7.57,7.57,0,1,0-15.13,0Z"/><path class="cls-2" d="M243.36,24.1c2-2.63,4.42-4,7.27-4,4.24,0,7.2,2.92,7.2,9V40h-2.48V29.47c0-4.56-1.43-7.09-5.19-7.09A6.24,6.24,0,0,0,245,25c-1.46,1.89-1.68,3.79-1.68,6.86V40h-2.48V20.63h2.48Z"/><path class="cls-2" d="M273,24.1c2-2.63,4.43-4,7.28-4,4.23,0,7.19,2.92,7.19,9V40h-2.48V29.47c0-4.56-1.43-7.09-5.19-7.09A6.21,6.21,0,0,0,274.64,25c-1.47,1.89-1.69,3.79-1.69,6.86V40h-2.48V20.63H273Z"/><path class="cls-2" d="M301.71,30.53c.11,4.46,3.14,7.71,7.31,7.71s6-2.3,7.41-4.64l2.09,1.1c-2,3.87-5,5.81-9.25,5.81a9.84,9.84,0,0,1-10.12-10.12,10,10,0,0,1,10-10.27c5.51,0,10,4,10,10.41Zm14.72-2.19a7.12,7.12,0,0,0-7.27-5.81c-3.47,0-6.06,1.86-7.19,5.81Z"/><path class="cls-2" d="M332.76,23.44c1.47-2.12,3-3.32,5-3.32a3.88,3.88,0,0,1,2.23.66l-1.32,2.12a2.88,2.88,0,0,0-1.31-.37c-1.83,0-3.47,1.57-4.2,4.24a26.46,26.46,0,0,0-.41,5.88V40h-2.63V20.63h2.63Z"/></g></g></svg>